<svg width="24" height="33" viewBox="0 0 24 33" fill="none" xmlns="http://www.w3.org/2000/svg">
<path d="M19.8372 27.7131C20.2468 27.7131 20.6116 27.7958 20.9316 27.9612C21.258 28.1203 21.514 28.3684 21.6996 28.7056C21.8852 29.0364 21.978 29.4627 21.978 29.9844V32.9237H20.4804V30.2134C20.4804 29.7999 20.3876 29.4945 20.202 29.2973C20.0228 29.1001 19.7668 29.0014 19.434 29.0014C19.1972 29.0014 18.9828 29.0523 18.7908 29.1541C18.6052 29.2496 18.458 29.3991 18.3492 29.6027C18.2468 29.8062 18.1956 30.0671 18.1956 30.3852V32.9237H16.698V27.7895H18.1284V29.2114L17.8596 28.782C18.0452 28.4384 18.3108 28.1744 18.6564 27.9899C19.002 27.8054 19.3956 27.7131 19.8372 27.7131Z" fill="#999999"/>
<path d="M12.8651 33C12.3147 33 11.8251 32.8855 11.3963 32.6564C10.9739 32.4274 10.6379 32.1157 10.3883 31.7212C10.1451 31.3204 10.0235 30.8655 10.0235 30.3566C10.0235 29.8412 10.1451 29.3864 10.3883 28.9919C10.6379 28.5911 10.9739 28.2794 11.3963 28.0567C11.8251 27.8276 12.3147 27.7131 12.8651 27.7131C13.4091 27.7131 13.8955 27.8276 14.3243 28.0567C14.7531 28.2794 15.0891 28.5879 15.3323 28.9824C15.5755 29.3768 15.6971 29.8349 15.6971 30.3566C15.6971 30.8655 15.5755 31.3204 15.3323 31.7212C15.0891 32.1157 14.7531 32.4274 14.3243 32.6564C13.8955 32.8855 13.4091 33 12.8651 33ZM12.8651 31.7785C13.1147 31.7785 13.3387 31.7212 13.5371 31.6067C13.7355 31.4922 13.8923 31.33 14.0075 31.12C14.1227 30.9037 14.1803 30.6492 14.1803 30.3566C14.1803 30.0575 14.1227 29.8031 14.0075 29.5931C13.8923 29.3832 13.7355 29.2209 13.5371 29.1064C13.3387 28.9919 13.1147 28.9346 12.8651 28.9346C12.6155 28.9346 12.3915 28.9919 12.1931 29.1064C11.9947 29.2209 11.8347 29.3832 11.7131 29.5931C11.5979 29.8031 11.5403 30.0575 11.5403 30.3566C11.5403 30.6492 11.5979 30.9037 11.7131 31.12C11.8347 31.33 11.9947 31.4922 12.1931 31.6067C12.3915 31.7212 12.6155 31.7785 12.8651 31.7785Z" fill="#999999"/>
<path d="M7.29721 33C6.74041 33 6.24441 32.8887 5.80921 32.666C5.37401 32.437 5.03161 32.122 4.78201 31.7212C4.53881 31.3204 4.41721 30.8655 4.41721 30.3566C4.41721 29.8412 4.53881 29.3864 4.78201 28.9919C5.03161 28.5911 5.37401 28.2794 5.80921 28.0567C6.24441 27.8276 6.74041 27.7131 7.29721 27.7131C7.84121 27.7131 8.31481 27.8276 8.71801 28.0567C9.12121 28.2794 9.41881 28.6006 9.61081 29.0205L8.44921 29.6408C8.31481 29.3991 8.14521 29.2209 7.94041 29.1064C7.74201 28.9919 7.52441 28.9346 7.28761 28.9346C7.03161 28.9346 6.80121 28.9919 6.59641 29.1064C6.39161 29.2209 6.22841 29.3832 6.10681 29.5931C5.99161 29.8031 5.93401 30.0575 5.93401 30.3566C5.93401 30.6556 5.99161 30.9101 6.10681 31.12C6.22841 31.33 6.39161 31.4922 6.59641 31.6067C6.80121 31.7212 7.03161 31.7785 7.28761 31.7785C7.52441 31.7785 7.74201 31.7244 7.94041 31.6163C8.14521 31.5017 8.31481 31.3204 8.44921 31.0723L9.61081 31.7021C9.41881 32.1157 9.12121 32.437 8.71801 32.666C8.31481 32.8887 7.84121 33 7.29721 33Z" fill="#999999"/>
<path d="M1.75682 32.9236V26.2435H3.31202V32.9236H1.75682Z" fill="#999999"/>
<path d="M0 2.38577C0 1.06815 1.07452 0 2.4 0H21.6C22.9255 0 24 1.06815 24 2.38577V21.4719C24 22.7896 22.9255 23.8577 21.6 23.8577H2.4C1.07452 23.8577 0 22.7896 0 21.4719V2.38577Z" fill="#999999"/>
</svg>
